<svg width="45" height="50" viewBox="0 0 45 50" fill="none" xmlns="http://www.w3.org/2000/svg">
<g clip-path="url(#clip0_3_71)">
<path d="M44.4804 9.79797H0L4.16993 45.9078L22.2379 50L40.3059 45.9078L44.4804 9.79797Z" fill="#E6A329"/>
<path d="M22.2379 12.74V46.94L36.8771 43.6282L40.4384 12.74H22.2379Z" fill="#F1BF22"/>
<path d="M33.8843 17.1699H11.3757L9.80798 30.6884L9.84025 30.6043H28.9625L28.3397 36.3241L22.2385 37.7257L16.0473 36.3015L15.6764 32.8396H10.0565L10.8582 39.7571L22.2385 42.337L33.6239 39.7571L35.1916 26.1789H14.8974L15.1578 21.655H29.2382L29.4488 24.247H35.1163L33.8843 17.1699Z" fill="white"/>
<path d="M22.243 17.1699H11.3757L9.80798 30.6884L9.84025 30.6043H22.2425V26.1943H15.6889L15.9493 21.6703H22.243V17.1699ZM15.6889 32.8419H10.056L10.8577 39.7558L22.2379 42.3329V37.7321L16.0467 36.3042L15.6889 32.8419Z" fill="#EBEBEB"/>
<path d="M17.9129 4.47196H13.953V6.74208H20.7472V0H17.9163L17.9129 4.47196ZM30.5257 0.03617H23.6228V2.39626C24.5446 3.13232 25.0253 3.48633 26.383 4.55244H23.6228V6.70456H30.5251V4.55606L27.7678 2.39988H30.528L30.5257 0.03617Z" fill="#FFE600"/>
</g>
<defs>
<clipPath id="clip0_3_71">
<rect width="44.4804" height="50" fill="white"/>
</clipPath>
</defs>
</svg>
